<?xml version="1.0" standalone="no"?>
<!DOCTYPE svg PUBLIC "-//W3C//DTD SVG 20010904//EN"
 "http://www.w3.org/TR/2001/REC-SVG-20010904/DTD/svg10.dtd">
<svg version="1.0" xmlns="http://www.w3.org/2000/svg"
 width="511.000000pt" height="481.000000pt" viewBox="0 0 511.000000 481.000000"
 preserveAspectRatio="xMidYMid meet">

<g transform="translate(0.000000,481.000000) scale(0.100000,-0.100000)"
fill="#000000" stroke="none">
<path d="M2330 4793 c-282 -29 -508 -85 -739 -184 -809 -347 -1371 -1118
-1450 -1989 -65 -708 187 -1405 689 -1909 287 -288 603 -481 1000 -610 254
-82 638 -120 930 -92 127 13 331 49 430 78 98 28 287 101 392 152 618 297
1108 892 1272 1544 106 419 109 777 12 1189 -89 376 -301 772 -557 1043 -26
28 -60 64 -76 80 -290 306 -755 561 -1193 654 -198 42 -532 63 -710 44z m80
-78 c35 -18 40 -40 8 -31 -13 3 -32 8 -43 11 -27 7 -83 -29 -95 -60 -33 -87
67 -162 145 -111 23 15 25 15 25 0 0 -39 -87 -59 -144 -32 -27 12 -66 80 -66
114 0 34 35 87 71 106 41 22 61 23 99 3z m320 -108 c18 -54 39 -101 46 -104
16 -6 19 -63 4 -63 -5 0 -10 9 -10 20 0 17 -7 20 -42 20 -24 0 -67 3 -96 7
-49 5 -54 4 -59 -16 -8 -32 -23 -25 -23 10 0 22 5 32 20 36 10 3 22 14 26 25
18 59 88 188 95 176 4 -7 21 -57 39 -111z m145 54 c-6 -47 -6 -48 22 -54 70
-14 97 -87 46 -127 -23 -18 -35 -20 -73 -15 -25 4 -48 9 -51 10 -3 2 4 56 15
119 14 81 25 116 34 116 11 0 12 -11 7 -49z m-689 -83 c-23 -89 -36 -124 -48
-126 -13 -3 -15 4 -11 37 5 36 1 47 -46 110 -29 41 -46 73 -40 76 14 9 33 -9
69 -66 29 -44 50 -56 50 -27 0 30 33 118 45 118 10 0 6 -29 -19 -122z m866 97
c3 -3 -3 -54 -13 -113 -11 -59 -19 -110 -19 -114 0 -5 -7 -8 -15 -8 -8 0 -15
1 -15 3 0 1 9 54 20 117 11 63 20 116 20 118 0 4 17 2 22 -3z m92 -99 c9 -44
19 -82 21 -85 3 -3 35 24 70 59 74 74 73 76 48 -77 -12 -76 -20 -103 -31 -103
-11 0 -13 8 -8 33 15 85 18 117 10 117 -5 0 -30 -21 -55 -46 l-47 -47 -11 44
c-29 115 -24 113 -61 32 -31 -69 -50 -91 -50 -58 0 12 71 182 87 208 8 13 10
8 27 -77z m-1091 -88 c43 -53 33 -77 -12 -28 -25 27 -33 31 -63 25 -48 -9 -54
-15 -64 -59 -7 -30 -16 -42 -37 -49 -24 -8 -34 -5 -67 22 -21 17 -43 31 -48
31 -5 0 -13 -23 -18 -52 -5 -28 -15 -53 -23 -56 -11 -4 -12 3 -8 29 21 114 22
111 -28 148 -25 18 -45 37 -45 42 0 17 29 9 60 -17 17 -15 32 -25 34 -23 2 2
8 24 13 48 4 25 15 47 22 49 11 4 13 -5 7 -47 -4 -28 -9 -57 -12 -64 -4 -12
89 -97 106 -97 4 0 15 51 24 113 10 61 20 120 22 129 5 18 15 7 137 -144z
m1414 12 l8 -51 34 26 c38 27 82 36 62 11 -6 -7 -31 -26 -56 -41 -34 -22 -43
-34 -40 -49 2 -12 7 -43 10 -69 6 -45 8 -47 25 -35 10 7 57 42 105 77 47 35
87 62 89 60 5 -6 -21 -249 -27 -255 -14 -15 -25 10 -20 46 5 38 4 40 -39 61
l-45 22 -30 -22 c-53 -39 -93 -2 -93 85 0 30 -3 30 -54 -5 -27 -19 -47 -26
-56 -21 -9 6 4 19 45 46 l57 38 -5 63 c-5 50 -3 63 8 63 9 0 16 -18 22 -50z
m-1884 -109 c60 -85 71 -111 48 -111 -5 0 -26 27 -47 59 -21 33 -42 57 -45 55
-4 -2 -8 -32 -8 -65 0 -34 -2 -64 -5 -67 -3 -3 -31 12 -62 32 -31 21 -58 36
-60 34 -2 -3 8 -35 23 -71 17 -44 23 -71 17 -77 -6 -6 -27 30 -57 102 -26 61
-46 113 -44 114 2 2 36 -17 77 -42 53 -33 75 -41 81 -32 4 6 7 41 7 77 -1 77
1 96 6 90 2 -2 33 -46 69 -98z m1226 14 c595 -87 1095 -408 1431 -920 69 -105
171 -316 210 -435 191 -579 125 -1183 -188 -1700 -289 -478 -772 -816 -1337
-937 -124 -26 -143 -27 -395 -27 -251 0 -271 2 -390 28 -425 93 -744 267
-1040 565 -234 237 -388 485 -484 780 -77 235 -106 416 -106 650 1 226 33 414
111 646 98 293 248 533 478 765 322 324 698 515 1156 584 126 20 422 20 554 1z
m1021 -59 c0 -7 -5 -38 -11 -70 -7 -31 -9 -59 -6 -62 3 -3 29 8 59 25 52 30
88 39 88 24 -1 -15 -225 -133 -240 -127 -13 5 -12 8 4 17 43 26 52 45 66 129
10 65 16 85 26 81 8 -3 14 -11 14 -17z m-2471 -84 c34 -45 61 -87 61 -92 0
-16 -22 -12 -36 8 -60 77 -114 164 -108 173 8 13 8 13 83 -89z m-188 -43 c25
-31 26 -31 57 -15 33 17 69 20 89 8 20 -13 33 -60 23 -86 -8 -21 -68 -76 -83
-76 -6 0 -137 186 -137 195 0 16 29 1 51 -26z m2880 -32 c44 -29 68 -72 52
-88 -10 -10 -14 -7 -22 13 -12 31 -57 68 -83 68 -82 0 -130 -111 -72 -165 15
-14 38 -25 51 -25 15 0 23 -5 21 -12 -12 -37 -100 0 -119 50 -26 66 -6 126 54
162 42 26 76 25 118 -3z m-2940 -113 c63 -31 89 -40 97 -32 8 8 17 5 31 -13
23 -28 18 -44 -8 -27 -16 10 -28 3 -85 -48 -53 -47 -65 -63 -61 -81 6 -27 -2
-29 -26 -7 -12 11 -16 25 -13 43 3 16 -8 63 -30 124 -42 115 -47 112 95 41z
m3138 -215 c-28 -56 -48 -110 -46 -120 6 -24 -29 -57 -45 -41 -8 8 -7 13 5 18
14 5 5 19 -45 76 -51 57 -66 68 -85 63 -30 -7 -31 15 -2 33 14 9 25 10 31 4 6
-6 45 4 106 28 143 56 141 57 81 -61z m-3404 82 c3 -6 -7 -16 -22 -23 -34 -16
-62 -68 -56 -103 14 -70 109 -100 158 -50 14 13 25 36 25 50 0 27 17 34 26 10
9 -24 -16 -73 -48 -96 -42 -30 -122 -22 -154 15 -31 36 -46 91 -33 124 21 56
86 101 104 73z m3575 -128 c0 -5 -17 -22 -37 -39 -36 -30 -36 -31 -20 -55 31
-43 14 -110 -31 -121 -31 -9 -78 17 -102 57 -19 31 -21 39 -9 46 8 4 50 33 94
63 75 52 105 66 105 49z m-3719 -41 c8 -15 37 -64 63 -109 31 -53 46 -89 42
-99 -6 -15 -11 -11 -31 17 -22 34 -28 36 -109 48 -54 8 -86 18 -86 25 0 22 10
24 77 10 36 -8 68 -12 71 -9 3 2 -11 31 -30 62 -31 53 -38 83 -20 83 4 0 14
-12 23 -28z m3819 -112 c0 -8 -184 -140 -195 -140 -3 0 -5 6 -5 14 0 16 180
146 193 139 4 -2 7 -8 7 -13z m40 -65 c0 -2 -20 -36 -45 -74 -25 -38 -45 -72
-45 -75 0 -3 41 -6 90 -6 50 0 90 -3 90 -7 0 -5 -43 -37 -95 -72 -67 -45 -98
-62 -106 -54 -7 7 5 20 40 42 83 54 84 61 8 61 -36 0 -68 4 -71 8 -3 5 11 32
30 61 20 29 33 55 30 58 -3 3 -33 -6 -66 -21 -70 -30 -80 -31 -80 -13 0 8 44
31 103 55 103 41 117 46 117 37z m-3904 -57 c82 -8 114 -15 114 -25 0 -9 -14
-13 -44 -13 -40 0 -46 -3 -67 -37 l-23 -36 22 -38 c35 -60 9 -89 -81 -89 l-39
0 37 -51 c24 -34 33 -55 27 -61 -7 -7 -21 4 -42 33 -18 24 -35 50 -38 58 -4
10 -20 12 -73 7 -60 -6 -68 -5 -63 8 4 10 18 16 39 16 62 0 68 7 40 48 -25 37
-32 62 -17 62 5 0 24 -23 43 -51 32 -48 36 -50 69 -45 19 3 47 6 63 6 15 0 27
5 27 12 0 6 -31 53 -70 103 -38 50 -70 95 -70 98 0 9 15 9 146 -5z m4038 -303
c-15 -20 -25 -37 -23 -39 2 -1 24 -7 48 -12 25 -5 46 -15 49 -23 4 -11 -3 -13
-29 -7 -102 20 -101 20 -138 -29 -26 -35 -31 -49 -22 -55 8 -4 62 -13 122 -21
60 -7 109 -16 109 -19 0 -4 -19 -23 -42 -41 -23 -19 -46 -38 -52 -44 -27 -25
-105 -85 -110 -85 -16 0 -3 31 22 52 27 23 28 26 18 68 -10 40 -15 46 -50 55
-61 17 -67 44 -22 97 37 43 37 43 14 50 -13 3 -37 6 -55 7 -30 1 -51 16 -40
28 4 3 33 0 67 -5 33 -6 66 -9 73 -6 7 3 28 26 47 52 25 35 35 42 38 30 2 -10
-9 -34 -24 -53z m-4190 -109 c33 -6 62 -18 64 -25 5 -14 -38 -13 -128 5 l-35
7 53 -56 c30 -30 50 -57 45 -60 -4 -3 -26 -8 -48 -12 -22 -5 -51 -12 -65 -17
-23 -9 -20 -12 45 -38 62 -25 95 -50 65 -50 -7 0 -9 -8 -5 -21 7 -21 5 -22
-46 -15 -104 14 -189 37 -189 52 0 10 7 13 23 9 72 -16 191 -34 195 -31 5 5
-68 39 -151 71 -26 10 -44 21 -40 25 4 3 42 15 83 25 41 10 77 20 79 22 3 2
-24 33 -60 69 l-64 66 60 -7 c33 -4 87 -12 119 -19z m4336 -230 c0 -8 -25 -32
-55 -53 -30 -21 -55 -41 -55 -45 0 -3 15 -9 33 -13 80 -16 107 -27 107 -40 0
-19 4 -20 -135 19 -65 18 -121 39 -123 46 -4 10 5 11 35 7 37 -6 46 -3 109 43
75 53 84 57 84 36z m-4405 -82 c28 -11 46 -60 39 -104 -4 -22 -10 -43 -14 -45
-7 -5 -64 4 -177 26 -35 7 -53 15 -53 25 0 12 8 13 38 8 20 -3 41 -7 45 -8 5
0 14 17 22 39 20 57 53 77 100 59z m4395 -129 c16 -9 36 -29 45 -45 27 -51 14
-130 -21 -130 -11 0 -12 4 -4 19 22 41 1 121 -35 135 -36 13 -84 6 -112 -18
-22 -19 -28 -32 -27 -65 1 -22 7 -48 14 -56 15 -18 7 -30 -14 -22 -25 10 -40
79 -27 120 22 67 113 97 181 62z m-4352 -41 c27 -8 29 -24 3 -24 -15 0 -19
-11 -25 -61 -11 -107 -8 -130 14 -136 32 -9 23 -23 -15 -23 -24 0 -35 5 -35
15 0 9 -43 36 -106 68 l-107 54 89 30 c49 17 99 34 112 38 13 4 22 14 22 26 0
20 10 23 48 13z m4202 -249 c0 -14 73 -57 174 -101 l49 -21 -87 -31 c-47 -18
-98 -35 -112 -38 -15 -4 -29 -15 -31 -25 -4 -13 -14 -19 -34 -19 -34 0 -40 25
-9 33 18 5 20 14 20 95 0 71 -3 91 -15 96 -26 10 -16 26 15 26 20 0 30 -5 30
-15z m-4238 -112 c11 -10 18 -30 18 -55 0 -79 -50 -128 -130 -128 -32 0 -48 7
-78 34 -33 31 -37 39 -37 86 0 34 5 54 15 60 23 15 33 12 25 -7 -34 -81 4
-143 86 -143 39 0 89 48 89 85 0 14 -7 39 -15 55 -18 34 -4 41 27 13z m4351
-161 c89 -19 104 -37 31 -37 -46 0 -49 -2 -52 -27 -4 -32 -45 -68 -78 -68 -50
0 -81 73 -58 134 8 20 54 20 157 -2z m-4427 -84 c85 -22 124 -36 124 -46 0
-10 -9 -12 -39 -7 -35 6 -44 2 -106 -44 -72 -54 -85 -60 -85 -37 0 8 27 34 61
58 l61 42 -65 17 c-70 18 -87 25 -87 40 0 12 -3 13 136 -23z m4398 -94 c78
-16 92 -22 78 -36 -8 -8 -65 0 -209 28 -13 2 -23 11 -23 19 0 17 25 15 154
-11z m-4264 -28 c0 -8 -12 -24 -26 -35 -22 -17 -25 -25 -19 -53 12 -53 23 -68
53 -68 58 0 68 -45 22 -99 -16 -19 -28 -37 -25 -39 2 -2 25 -8 52 -13 46 -9
72 -23 61 -34 -3 -3 -35 1 -71 8 l-66 14 -24 -26 c-13 -14 -33 -38 -44 -53
-17 -23 -22 -25 -27 -12 -4 9 6 30 24 52 32 39 27 51 -20 52 -14 0 -32 4 -40
10 -27 17 0 23 56 13 53 -9 57 -9 78 14 12 13 29 36 39 52 l17 28 -122 17
c-67 9 -123 18 -125 20 -4 4 189 165 200 166 4 0 7 -6 7 -14z m4218 -38 c56
-23 102 -45 102 -48 0 -4 -38 -15 -85 -25 -47 -10 -85 -21 -85 -24 0 -3 28
-34 62 -68 34 -34 60 -64 57 -67 -8 -8 -233 39 -231 49 3 12 37 12 107 1 l50
-8 -50 52 c-57 58 -55 62 33 81 28 7 52 15 52 18 0 4 -29 18 -65 31 -36 13
-65 30 -65 37 0 19 4 18 118 -29z m-165 -318 c41 -64 32 -61 140 -45 53 9 23
-19 -32 -30 l-52 -10 30 -40 c19 -27 27 -46 21 -54 -6 -10 -18 1 -45 41 l-36
55 -47 -4 c-57 -6 -72 -10 -72 -21 0 -4 27 -44 61 -87 84 -110 87 -117 52
-111 -15 2 -68 7 -118 11 -111 8 -126 12 -118 31 4 11 15 13 47 9 40 -6 42 -5
63 36 l23 41 -21 30 c-30 42 -19 78 24 79 17 1 45 4 60 8 l28 6 -36 47 c-32
41 -39 68 -17 68 4 0 24 -27 45 -60z m-3946 -112 c-29 -20 -55 -38 -59 -38 -5
0 -8 -4 -8 -10 0 -6 30 -10 70 -10 39 0 70 -2 70 -4 0 -3 -16 -31 -35 -63 -19
-31 -33 -59 -31 -61 2 -2 31 8 65 22 69 30 81 31 81 13 0 -12 -210 -100 -218
-92 -2 2 17 35 42 73 25 38 46 72 46 76 0 3 -40 6 -90 6 -49 0 -90 3 -90 8 0
4 21 22 48 40 26 18 69 48 97 67 34 24 51 31 56 23 5 -8 -11 -26 -44 -50z
m173 -183 c0 -8 -12 -22 -27 -32 -16 -10 -57 -39 -92 -65 -46 -35 -68 -45 -75
-38 -12 12 -8 15 113 102 73 52 81 55 81 33z m3551 -49 c12 -26 16 -28 127
-47 39 -7 72 -16 72 -21 0 -17 -32 -20 -91 -8 -33 7 -62 10 -65 8 -3 -3 11
-31 30 -61 38 -59 42 -72 27 -81 -11 -7 -142 214 -135 226 9 15 24 8 35 -16z
m-3517 -16 c28 -10 87 -91 71 -97 -6 -2 -48 -30 -94 -63 -46 -33 -88 -60 -92
-60 -23 0 -15 20 16 41 39 27 42 36 20 65 -35 46 -12 102 52 123 1 1 13 -3 27
-9z m126 -88 c0 -4 -5 -13 -11 -19 -8 -8 0 -24 33 -60 24 -26 54 -59 66 -72
17 -19 24 -22 36 -12 10 8 16 9 21 1 10 -16 -36 -49 -55 -39 -10 6 -48 -3
-120 -30 -58 -22 -106 -38 -108 -36 -2 2 20 49 48 105 28 56 49 109 45 118 -3
8 2 23 11 33 18 20 34 25 34 11z m3359 -36 c60 -31 81 -96 52 -161 -21 -48
-57 -73 -88 -61 -15 7 -12 11 18 26 64 33 72 109 17 155 -42 36 -89 34 -122
-6 -14 -17 -26 -39 -26 -50 0 -23 -18 -25 -27 -3 -9 23 25 82 56 99 34 19 85
19 120 1z m-256 -150 c10 -15 12 -27 6 -33 -6 -6 3 -47 26 -112 20 -57 35
-107 33 -111 -2 -4 -48 14 -102 41 -62 30 -107 47 -120 43 -14 -3 -25 2 -34
17 -16 25 -9 37 12 20 11 -10 28 0 85 50 71 61 80 73 61 84 -11 7 -4 25 9 25
5 0 16 -11 24 -24z m-2847 -120 c28 -28 34 -41 34 -77 0 -131 -155 -182 -226
-74 -10 15 -13 32 -9 42 7 17 8 17 18 -1 34 -55 54 -70 93 -69 80 2 124 103
70 158 -13 13 -36 27 -50 31 -32 8 -24 24 11 24 15 0 38 -13 59 -34z m2667
-77 c35 -40 117 -159 117 -169 0 -21 -26 -9 -43 20 -21 34 -24 35 -63 15 -40
-20 -70 -19 -94 5 -33 33 -26 77 17 116 20 19 40 34 43 34 3 0 14 -9 23 -21z
m-2473 -68 c0 -6 -14 -18 -30 -28 -33 -19 -34 -23 -50 -122 -10 -69 -15 -80
-30 -65 -6 6 -5 32 2 72 6 34 9 65 5 68 -3 3 -31 -8 -62 -26 -34 -20 -62 -29
-73 -25 -13 5 2 17 58 48 41 24 91 52 110 65 36 23 70 29 70 13z m2400 -137
c44 -64 51 -84 30 -84 -15 0 -141 190 -134 202 8 13 29 -10 104 -118z m-2348
57 c-2 -40 -1 -42 42 -63 l44 -21 31 22 c30 22 33 22 56 7 21 -14 25 -24 25
-66 0 -28 3 -50 6 -50 3 0 25 14 49 31 29 21 50 29 62 25 14 -6 4 -15 -46 -48
l-62 -41 7 -65 c5 -53 4 -64 -7 -60 -8 3 -15 22 -17 44 -5 55 -16 61 -52 30
-31 -25 -60 -34 -60 -18 0 4 23 25 51 46 46 34 51 41 45 68 -3 17 -6 43 -6 59
0 16 -3 29 -7 29 -5 0 -50 -32 -102 -71 -51 -38 -96 -68 -99 -65 -10 11 21
257 32 253 6 -2 10 -22 8 -46z m2265 -51 c19 -47 39 -95 43 -107 13 -32 3 -29
-74 22 -38 25 -73 45 -77 45 -5 0 -10 -42 -11 -92 l-3 -93 -68 99 c-45 64 -65
102 -59 108 7 7 25 -12 53 -52 l44 -62 6 66 c3 36 8 69 11 72 4 3 30 -11 60
-30 61 -42 69 -34 38 38 -22 53 -26 80 -9 74 6 -2 27 -42 46 -88z m-337 -127
c-13 -75 -18 -63 64 -128 23 -18 25 -23 12 -28 -10 -4 -29 5 -51 25 -20 17
-38 28 -42 25 -3 -3 -8 -26 -10 -52 -4 -29 -10 -45 -19 -45 -16 0 -17 19 -3
78 9 42 8 45 -23 73 -42 38 -65 51 -72 41 -3 -5 -10 -50 -16 -100 -20 -161
-14 -158 -105 -47 -44 53 -81 101 -83 106 -8 20 28 7 47 -17 17 -22 25 -25 53
-19 51 11 68 24 68 50 0 63 39 73 100 25 42 -34 44 -33 55 25 7 39 23 70 33
61 2 -3 -1 -35 -8 -73z m-1510 25 c0 -2 -6 -37 -14 -78 -8 -41 -14 -76 -12
-77 1 -1 26 21 55 49 58 58 65 56 76 -20 12 -78 16 -78 52 -1 24 52 36 70 44
62 8 -8 -3 -41 -37 -117 -26 -58 -49 -105 -50 -103 -2 2 -10 37 -19 78 -8 41
-18 80 -21 88 -3 10 -26 -6 -75 -55 -57 -55 -69 -64 -65 -44 7 32 36 203 36
213 0 4 7 7 15 7 8 0 15 -1 15 -2z m249 -90 c-1 -55 -36 -212 -47 -216 -7 -2
-12 5 -12 16 0 22 28 190 35 210 7 21 25 13 24 -10z m221 2 c0 -16 7 -20 34
-20 18 0 61 -3 95 -6 58 -7 62 -5 68 15 8 32 23 25 23 -10 0 -21 -6 -32 -18
-36 -11 -2 -36 -44 -66 -109 -27 -58 -53 -101 -57 -97 -4 4 -22 54 -39 111
-18 57 -38 106 -46 109 -16 6 -19 63 -4 63 6 0 10 -9 10 -20z m647 -2 c-18
-49 -16 -56 33 -127 27 -40 50 -77 50 -83 0 -22 -31 0 -62 46 -19 27 -39 51
-45 53 -7 3 -17 -20 -24 -52 -13 -57 -32 -95 -44 -84 -6 6 49 231 61 250 8 14
37 10 31 -3z m-690 -12 c2 -2 -6 -51 -17 -111 -11 -60 -20 -112 -20 -117 0 -4
-7 -8 -15 -8 -17 0 -17 0 -6 57 8 40 7 41 -23 47 -80 16 -102 107 -33 136 18
8 105 4 114 -4z m529 -40 c30 -30 34 -40 34 -84 0 -40 -6 -57 -26 -81 -34 -41
-91 -58 -129 -40 -37 18 -47 44 -14 34 77 -25 139 13 139 84 0 76 -85 119
-148 75 -20 -14 -22 -14 -22 2 0 27 31 43 84 44 42 0 53 -5 82 -34z"/>
<path d="M2648 4595 c-16 -35 -28 -69 -28 -75 0 -6 23 -10 55 -10 30 0 55 3
55 7 0 15 -44 143 -49 143 -4 0 -18 -29 -33 -65z"/>
<path d="M2856 4558 c-14 -53 -8 -68 27 -68 39 0 57 15 57 47 0 42 -73 60 -84
21z"/>
<path d="M1930 4539 c0 -40 1 -41 27 -34 38 9 38 9 12 44 -30 41 -39 39 -39
-10z"/>
<path d="M3630 4349 l-24 -21 24 -19 c35 -26 40 -24 40 21 0 45 -5 48 -40 19z"/>
<path d="M1760 3410 c-8 -5 -34 -10 -57 -10 -105 0 -160 -130 -86 -204 44 -44
73 -10 34 40 -27 34 -26 54 1 89 18 24 27 27 63 23 31 -4 47 0 64 13 38 31 87
25 128 -16 38 -38 70 -43 65 -10 -6 34 -40 59 -99 72 -72 15 -94 15 -113 3z"/>
<path d="M2041 3318 c-31 -17 -59 -56 -63 -88 -2 -20 2 -26 20 -28 18 -3 25 3
33 28 14 39 58 64 92 51 32 -13 57 -53 51 -85 -3 -21 -1 -26 16 -26 31 0 60
-35 60 -74 0 -26 5 -36 20 -41 27 -9 40 1 40 31 0 35 -27 85 -61 112 -16 13
-29 32 -29 43 0 10 -13 33 -28 50 -23 26 -38 32 -78 36 -29 2 -59 -1 -73 -9z"/>
<path d="M1805 3271 c-30 -13 -58 -48 -52 -66 9 -21 40 -19 55 5 15 25 44 26
65 2 24 -26 21 -38 -11 -51 -16 -7 -36 -25 -46 -42 -15 -26 -16 -30 -2 -35 16
-6 21 -5 65 21 29 16 56 6 66 -24 7 -23 44 -35 51 -16 6 15 -18 66 -40 84 -9
8 -16 24 -16 38 0 35 -16 61 -50 78 -32 16 -55 18 -85 6z"/>
<path d="M1520 3158 c-36 -59 -23 -124 32 -167 14 -12 29 -34 33 -50 14 -65
125 -123 125 -66 0 16 -6 25 -15 25 -27 0 -65 47 -65 80 0 24 -6 33 -27 41
-51 19 -68 72 -38 116 17 24 10 53 -11 53 -8 0 -23 -15 -34 -32z"/>
<path d="M2067 3133 c-16 -15 -6 -43 18 -49 33 -8 55 -40 55 -81 0 -25 4 -33
18 -33 10 0 28 -9 40 -20 30 -28 29 -74 -3 -105 -20 -21 -34 -25 -81 -25 -50
0 -59 -3 -90 -34 -39 -39 -46 -81 -14 -89 16 -4 24 2 34 28 18 42 27 47 93 50
63 4 96 22 119 67 28 54 1 147 -48 163 -10 4 -18 13 -18 21 0 54 -94 136 -123
107z"/>
<path d="M3556 2989 c-4 -24 -17 -146 -31 -270 -14 -124 -28 -246 -31 -272
l-7 -47 36 0 c42 0 39 -10 63 210 9 85 19 161 23 167 4 8 45 -55 100 -152 51
-91 94 -165 96 -165 3 0 66 112 149 263 21 38 41 65 45 60 7 -7 24 -140 40
-313 l6 -65 39 -3 38 -3 -6 48 c-3 26 -13 109 -21 183 -9 74 -22 188 -30 253
-8 66 -15 126 -15 135 0 24 -12 4 -118 -190 -50 -91 -100 -180 -110 -197 l-18
-30 -84 152 c-47 84 -101 181 -121 216 l-37 63 -6 -43z"/>
<path d="M2435 3010 c-7 -12 -122 -294 -182 -447 l-36 -93 -39 0 -39 0 3 -82
c3 -82 3 -83 31 -86 26 -3 27 -2 27 47 l0 51 240 0 c185 0 240 -3 242 -12 0
-7 2 -17 3 -23 2 -5 3 -22 4 -37 1 -24 5 -28 31 -28 l30 0 0 84 0 85 -37 3
c-43 3 -28 -24 -174 333 -45 110 -85 204 -89 208 -4 5 -11 4 -15 -3z m36 -208
c6 -20 36 -99 65 -175 30 -76 54 -143 54 -148 0 -5 -63 -9 -145 -9 -80 0 -145
1 -145 3 0 6 77 220 100 277 12 30 26 65 31 78 11 30 24 21 40 -26z"/>
<path d="M1195 2990 c-8 -25 2 -57 26 -89 11 -13 19 -34 19 -47 0 -23 -2 -24
-90 -24 -104 0 -113 -7 -83 -67 23 -48 71 -73 141 -73 l52 0 0 -253 0 -253
-29 -11 c-27 -10 -29 -14 -33 -84 -4 -73 -5 -76 -100 -234 -116 -192 -124
-227 -67 -284 l31 -31 270 0 c253 0 272 1 298 20 34 24 54 71 47 108 -3 15
-49 99 -103 187 -94 156 -96 162 -99 227 -3 76 -7 86 -41 98 -19 8 -24 17 -24
45 0 32 4 38 35 51 26 11 37 22 41 44 4 20 16 32 36 41 76 31 114 85 124 176
4 32 11 64 17 71 13 17 42 15 61 -4 14 -13 16 -52 16 -274 0 -180 4 -267 12
-285 33 -73 157 -71 187 3 7 16 11 62 9 108 -3 71 -5 79 -23 79 -18 0 -20 -8
-23 -80 -3 -86 -18 -115 -57 -115 -12 0 -29 8 -38 18 -15 16 -17 50 -17 276 0
210 -3 262 -15 286 -26 51 -79 64 -135 35 -32 -16 -35 -26 -45 -119 -6 -50
-13 -66 -40 -93 -35 -35 -59 -40 -88 -19 -10 8 -27 12 -37 9 -19 -5 -20 1 -20
126 l0 131 58 0 c31 0 68 6 81 13 34 17 61 57 64 92 l2 30 -90 5 c-102 6 -113
16 -74 69 12 17 22 46 23 68 l1 38 -137 3 c-130 2 -137 2 -143 -18z m226 -49
c-6 -10 -17 -21 -26 -25 -9 -3 -15 -18 -15 -41 l0 -36 -42 3 c-40 3 -43 5 -46
34 -2 18 -12 40 -23 50 -10 9 -19 21 -19 26 0 4 41 8 90 8 86 0 90 -1 81 -19z
m139 -159 c0 -28 -30 -32 -225 -32 -195 0 -225 4 -225 32 0 4 101 8 225 8 124
0 225 -4 225 -8z m-198 -249 l3 -158 38 1 c33 1 37 -1 37 -23 0 -19 -9 -28
-40 -40 l-40 -16 0 -59 c0 -55 -1 -58 -25 -58 l-25 0 0 255 0 255 25 0 24 0 3
-157z m68 -478 c6 -67 10 -76 103 -230 53 -88 97 -168 97 -177 0 -10 -9 -27
-20 -38 -19 -19 -33 -20 -272 -20 -265 1 -278 3 -292 45 -7 24 6 50 114 230
l74 124 61 3 c52 3 60 6 60 23 0 17 -8 20 -52 23 l-53 3 0 45 0 45 88 -3 87
-3 5 -70z"/>
<path d="M2867 3003 c-4 -3 -7 -141 -7 -305 l0 -298 103 0 c118 0 164 11 207
47 43 36 60 74 60 136 0 115 -99 187 -255 187 l-45 0 0 120 0 120 -28 0 c-16
0 -32 -3 -35 -7z m240 -333 c71 -43 63 -154 -12 -186 -23 -9 -60 -14 -98 -12
l-62 3 -1 100 c-1 55 0 103 3 108 2 4 34 7 71 7 49 0 76 -5 99 -20z"/>
<path d="M3310 2706 l0 -306 40 0 40 0 -2 303 -3 302 -37 3 -38 3 0 -305z"/>
<path d="M1798 2941 c-28 -24 -33 -36 -32 -71 2 -48 31 -86 76 -95 17 -4 33
-16 38 -30 13 -35 60 -49 60 -17 0 33 -39 82 -70 89 -57 11 -72 71 -24 98 10
5 20 10 20 10 1 0 5 10 8 23 6 19 4 22 -18 22 -14 0 -40 -13 -58 -29z"/>
<path d="M1904 2557 c-2 -7 -3 -71 -2 -143 3 -125 4 -129 26 -132 22 -3 22 -3
22 142 0 140 -1 146 -20 146 -11 0 -23 -6 -26 -13z"/>
<path d="M2811 2230 c-187 -427 -245 -558 -252 -572 -9 -16 -4 -18 36 -18 25
0 45 4 45 9 0 5 17 45 37 90 l37 81 122 0 121 0 38 -90 38 -90 38 0 c22 0 39
4 39 10 0 9 -49 121 -192 440 -93 205 -83 193 -107 140z m69 -229 c22 -51 40
-97 40 -102 0 -6 -34 -9 -85 -8 -48 1 -85 6 -85 12 0 14 82 198 86 194 2 -2
22 -45 44 -96z"/>
<path d="M3865 2251 c-88 -23 -169 -92 -207 -176 -33 -74 -32 -190 3 -265 50
-106 139 -168 252 -177 71 -6 129 7 178 40 28 19 35 30 37 65 2 23 0 42 -3 42
-4 0 -21 -11 -38 -24 -87 -64 -222 -61 -296 7 -13 12 -35 40 -49 62 -35 54
-38 169 -5 230 72 136 233 166 360 69 l33 -25 0 44 c0 47 -11 63 -67 91 -37
18 -154 29 -198 17z"/>
<path d="M2123 2208 c13 -24 52 -88 86 -143 33 -54 61 -102 61 -105 0 -3 -43
-74 -95 -158 -52 -85 -95 -155 -95 -158 0 -2 17 -4 38 -4 45 0 56 10 101 95
55 101 83 145 91 145 4 0 38 -54 75 -120 l68 -120 45 0 c44 0 44 0 30 23 -8
12 -52 84 -97 160 l-83 138 65 102 c83 133 107 173 107 181 0 4 -19 6 -42 4
l-41 -3 -61 -108 c-70 -124 -57 -126 -139 20 l-52 93 -43 0 -44 0 25 -42z"/>
<path d="M3134 2226 c3 -14 33 -81 66 -150 83 -174 110 -236 110 -256 0 -9
-13 -50 -30 -90 -16 -40 -30 -77 -30 -81 0 -5 17 -9 38 -9 42 0 24 -29 152
245 26 55 72 154 103 221 32 66 57 126 57 132 0 7 -15 12 -36 12 -35 0 -36 -1
-83 -103 -27 -56 -59 -127 -71 -157 -39 -93 -42 -93 -89 12 -23 51 -57 127
-74 168 l-32 75 -44 3 c-42 3 -43 3 -37 -22z"/>
<path d="M1238 4179 c-24 -14 -22 -33 6 -66 l24 -28 26 24 c14 14 26 32 26 41
0 36 -44 51 -82 29z"/>
<path d="M1030 4076 c0 -16 40 -119 50 -130 9 -9 91 54 84 66 -10 15 -134 75
-134 64z"/>
<path d="M4168 3891 c-37 -14 -68 -28 -68 -31 0 -10 62 -80 71 -80 10 0 72
118 67 129 -2 5 -33 -3 -70 -18z"/>
<path d="M4295 3714 c-11 -8 -26 -19 -34 -23 -11 -7 -10 -13 3 -34 21 -32 42
-40 67 -27 22 12 25 56 5 83 -16 20 -16 20 -41 1z"/>
<path d="M570 3511 c0 -7 11 -23 24 -38 l24 -26 17 27 c21 32 21 32 -27 41
-26 5 -38 4 -38 -4z"/>
<path d="M4670 3005 c0 -11 5 -27 10 -35 7 -12 13 -11 34 10 34 31 33 37 -9
42 -30 3 -35 1 -35 -17z"/>
<path d="M376 2774 c-9 -8 -16 -28 -16 -44 0 -24 4 -28 35 -32 41 -5 55 6 55
44 0 42 -45 62 -74 32z"/>
<path d="M343 2557 c-35 -11 -63 -23 -63 -26 1 -8 129 -65 135 -60 2 2 7 28
11 57 8 61 9 60 -83 29z"/>
<path d="M4680 2285 c0 -30 4 -55 8 -55 4 0 39 10 76 23 l67 23 -69 32 c-38
18 -73 32 -76 32 -3 0 -6 -25 -6 -55z"/>
<path d="M4662 2068 c3 -38 6 -43 30 -46 18 -2 31 4 42 20 31 44 14 67 -52 68
-21 0 -23 -4 -20 -42z"/>
<path d="M381 1809 c-21 -17 -22 -22 -10 -30 7 -5 27 -9 43 -9 22 0 27 4 22
16 -3 9 -6 22 -6 30 0 20 -21 17 -49 -7z"/>
<path d="M4470 1331 c-17 -33 -11 -41 31 -41 l40 0 -21 30 c-25 35 -35 37 -50
11z"/>
<path d="M768 1169 c-22 -12 -23 -47 -3 -77 l16 -22 34 23 c42 27 43 39 9 66
-30 24 -32 24 -56 10z"/>
<path d="M891 972 c-36 -71 -38 -84 -13 -76 49 17 122 48 122 54 0 3 -18 23
-39 44 l-39 39 -31 -61z"/>
<path d="M3969 823 l-42 -40 67 -37 c37 -21 70 -36 72 -33 4 4 -42 136 -51
145 -2 2 -23 -14 -46 -35z"/>
<path d="M3808 693 c-26 -31 -29 -42 -18 -63 13 -25 50 -26 79 -2 l22 17 -23
32 c-26 37 -39 40 -60 16z"/>
<path d="M1434 476 c-9 -52 -2 -58 35 -27 l35 29 -32 16 -31 16 -7 -34z"/>
<path d="M3138 293 c-24 -6 -23 -20 6 -53 l24 -29 6 31 c12 59 9 63 -36 51z"/>
<path d="M2370 282 c0 -11 41 -136 46 -141 5 -5 64 121 64 137 0 8 -18 12 -55
12 -30 0 -55 -4 -55 -8z"/>
<path d="M2172 298 c-27 -27 -3 -69 45 -80 25 -7 33 7 33 58 0 32 -2 34 -33
34 -18 0 -38 -5 -45 -12z"/>
</g>
</svg>
